<svg id="Layer_1" height="512" viewBox="0 0 512 512" width="512" xmlns="http://www.w3.org/2000/svg" data-name="Layer 1"><path d="m481.105 277.787a148.8 148.8 0 0 0 -4.318-36.913c5.459 5.9 10.049 12.034 11.256 16.634a6 6 0 0 0 11.8-1.524c0-33.224-20.925-62.884-28.8-74.05-.656-.93-1.222-1.731-1.675-2.394-15.017-21.96-36.431-40.417-61.927-53.378-5.645-2.869-11.681-5.22-17.519-7.492-13.146-5.118-25.564-9.953-32.18-19.856-11.388-17.045-32.548-26.855-53.919-25-15.839 1.379-28.4 9.245-33.6 21.043a45.29 45.29 0 0 1 -28.612 25.672c-4.981.442-37.735 4.6-63.349 38.844-13.944 18.64-29.489 16.228-35.524 14.326a30.288 30.288 0 0 1 -20.964-27.467c-.714-22.437-9.058-35.327-14.52-41.41 1.619-3.071 2.557-7.884-.661-14.538-2.947-6.093-7.165-7.864-10.183-8.276-5.086-.7-9.567 2.021-12.338 4.3-6.636-1.34-21.323-3.1-31.77 4.543-4.235 3.1-13.217 4.358-24.643 3.45a19.147 19.147 0 0 0 -19.289 11.92c-3.809 9.329-4.393 16.379-1.786 21.542a12.913 12.913 0 0 0 8.679 6.732c12.609 3.2 27.537 8.056 29.59 8.729 1.668.742 15.268 7.343 21.107 27.371 3.186 10.929 13.256 28.512 31.963 45.081 14.031 12.428 37.526 28.172 69.77 32.605a49.8 49.8 0 0 1 21.188 7.832c.979.657 2.028 1.328 3.136 2 3.575 10.409 19.367 58.292 15.26 80.275-3.879 20.765-6.444 49.493-7.366 60.881a6.6 6.6 0 0 1 -2.656 4.764c-5.451 4.043-12.893 10.123-17.389 16.125a9.378 9.378 0 0 0 7.49 15c.223 0 .448-.008.673-.023l31.8-2.192a14.185 14.185 0 0 0 12.685-18.016l-2.174-7.662a2.16 2.16 0 0 1 -.065-.879l4.806-36.4a7.67 7.67 0 0 1 .859-2.677c3.311-6.073 10.662-22.1 7.409-39.7-1.88-10.172-1.7-25.018-1.147-36.5 9.484 19 12.89 44.07 13.142 46.007a190.191 190.191 0 0 0 6.4 35.048c4.186 14.2.233 24.844-2.5 29.924a3.719 3.719 0 0 1 -1.794 1.65l-6.33 2.808a15.806 15.806 0 0 0 -9.2 16.787 14.327 14.327 0 0 0 14.251 12.231h36.429c4.168 0 9.447-2.529 10.93-14.579a20.971 20.971 0 0 0 -3.674-14.67 21.107 21.107 0 0 1 -3.435-7.935c-2.216-10.7-7.123-37.973-4.825-59.923.828-7.906-3.229-17.933-7.927-29.545-4.141-10.232-8.834-21.831-8.834-30.177 0-2.745.214-6.108.532-9.911a136.061 136.061 0 0 0 29.678 3.315c18.64 0 41.581-4.031 62.055-19.156 2.475-1.83 4.807-3.506 7.029-5.07 8.7 12.353 23.613 36.012 24.722 49.567 1.249 15.27 4.386 20.576 8.054 25.484a15.522 15.522 0 0 1 2.136 3.4c5.329 12.765 1.778 62.471-12.4 77.717l-16 11.472a7.846 7.846 0 0 0 4.575 14.223h31.675a7.857 7.857 0 0 0 7.833-8.581c-.3-3.124-.437-14.775 10.147-33.514 15.009-26.574 18.377-53.979 8.788-71.522-3.624-6.629-4.688-15.165-4.849-22.037 1.719 1.378 3.467 2.723 5.279 3.993a12.724 12.724 0 0 1 5.117 7.115c2.5 9.617 9.042 18.969 12.721 23.687a13.04 13.04 0 0 1 2.5 5.376c3.093 14.677 6.337 60.927 2.531 75.823-1.178 4.607-4.2 6.155-9.049 8.157-3.546 1.465-7.959 3.289-9.085 8.148a9.758 9.758 0 0 0 9.51 11.978c.228 0 .457-.007.686-.024l34.915-2.485a10.133 10.133 0 0 0 9.232-12.071 143.044 143.044 0 0 1 2.148-61.3c6.347-24.944-6.84-40.561-9.722-43.6-9.793-14.413-14.66-28.247-14.488-41.132zm-255.7 83.779a19.594 19.594 0 0 0 -2.219 6.851l-4.806 36.4a14.077 14.077 0 0 0 .416 5.722l2.175 7.665a2.143 2.143 0 0 1 -.313 1.841 2.177 2.177 0 0 1 -1.653.929l-25.387 1.75a104.217 104.217 0 0 1 10.783-9.047 18.6 18.6 0 0 0 7.469-13.435c.907-11.2 3.425-39.433 7.2-59.646 3.747-20.056-6.017-55.967-12.084-75.354a69.467 69.467 0 0 0 19.36 3.886 70.838 70.838 0 0 0 4.881 6.38c-.783 8.787-2.895 36.88.322 54.287 2.558 13.819-3.443 26.821-6.142 31.771zm199.011 20.211c-9.294 16.455-11.563 28.575-11.778 36h-14.509l5.956-4.27a5.977 5.977 0 0 0 .8-.685c18.578-19.027 22.168-74.46 15.228-91.08a26.5 26.5 0 0 0 -3.6-5.964c-2.28-3.05-4.637-6.206-5.707-19.279-.78-9.528-6.207-22.671-16.131-39.064-4-6.6-7.894-12.359-10.62-16.24a162.583 162.583 0 0 1 16.349-9.448c5.09 20.253 14.182 37.653 26.776 51.461-.654 6.993-1.453 25.174 5.944 38.706 7.5 13.723 4.083 37.221-8.706 59.863zm69.259-22.222a156.514 156.514 0 0 0 -2.683 64.512l-21.077 1.5a20.837 20.837 0 0 0 8.658-12.481c4.33-16.944 1.035-64.9-2.414-81.269a25.31 25.31 0 0 0 -4.775-10.279c-3.109-3.987-8.616-11.8-10.571-19.325a24.723 24.723 0 0 0 -9.844-13.926c-50.464-35.356-42.852-105.5-42.769-106.2a6 6 0 0 0 -11.916-1.42 151.416 151.416 0 0 0 1.591 39c-6.286 2.8-18.383 9.239-37.911 23.665-31.126 23-70.267 16.516-83.482 13.393 1.994-21.114 3.907-46.3-4.621-61.614a6 6 0 0 0 -10.484 5.838c7.157 12.856 4.666 38.9 2.847 57.913-.749 7.828-1.395 14.587-1.395 19.875 0 10.682 4.936 22.881 9.71 34.678 3.752 9.275 7.633 18.864 7.117 23.794-2.473 23.625 2.678 52.351 5.008 63.606a33.068 33.068 0 0 0 5.376 12.415 8.994 8.994 0 0 1 1.574 6.292 20.41 20.41 0 0 1 -.835 4.044h-34.604a2.394 2.394 0 0 1 -2.387-2.038 3.778 3.778 0 0 1 2.206-4.01l6.329-2.808a15.827 15.827 0 0 0 7.5-6.942c3.6-6.7 8.833-20.68 3.435-38.994a181.037 181.037 0 0 1 -5.958-32.714c-.007-.092-.016-.186-.027-.279-.226-1.863-5.771-45.88-25.486-66.49a58.594 58.594 0 0 1 -6.95-9.062c-.086-.149-.177-.295-.275-.437-12.471-19.9-19.014-49.461-19.09-49.811a6 6 0 0 0 -11.727 2.546c.281 1.3 5.195 23.532 15.089 43.563a65.829 65.829 0 0 1 -23.266-9.941 61.7 61.7 0 0 0 -26.241-9.756c-52.775-7.256-85.862-48.622-91.848-69.157-7.8-26.757-27.452-34.873-28.285-35.2-.113-.045-.228-.087-.343-.125-.676-.223-16.716-5.507-30.635-9.042-.761-.193-.864-.4-.919-.506-.525-1.04-.655-4.653 2.182-11.6a7.176 7.176 0 0 1 7.228-4.485c14.877 1.179 25.871-.747 32.679-5.729 7.286-5.331 20.347-3.168 24.751-1.89a6 6 0 0 0 6.2-1.787c1.111-1.26 3.409-2.9 4.367-2.964a4.889 4.889 0 0 1 1.082 1.61c1.1 2.274 1.014 3.465.814 3.776a10.507 10.507 0 0 0 1.152 12.939c4.223 4.432 11.4 14.8 12.024 34.389a41.913 41.913 0 0 0 29.352 38.531c17.654 5.564 35.874-1.385 48.739-18.584 23.718-31.705 54.742-34.078 55.031-34.1a6.155 6.155 0 0 0 .926-.127c1.038-.225 25.551-5.822 37.375-32.638 3.408-7.729 12.255-12.937 23.664-13.93 12.961-1.125 31.974 3.355 42.9 19.708 8.716 13.048 23.5 18.805 37.805 24.374 5.565 2.166 11.32 4.407 16.434 7.006 23.706 12.051 43.576 29.153 57.46 49.455.48.7 1.079 1.551 1.775 2.538 5.092 7.217 16.087 22.8 22.23 41.589a171.445 171.445 0 0 0 -15.538-14.117 6 6 0 0 0 -9.3 6.911c4.945 12.5 10.777 32.077 10.479 54.392-.208 15.535 5.468 31.85 16.868 48.489a6.39 6.39 0 0 0 .774.917c.494.486 12.097 12.198 6.927 32.519z"/></svg>